<svg width="11" height="19" viewBox="0 0 11 19" fill="none" xmlns="http://www.w3.org/2000/svg">
<path d="M2.81007 9.42852L10.3393 16.9203C10.5097 17.0899 10.6055 17.32 10.6055 17.5599C10.6055 17.7998 10.5097 18.0298 10.3393 18.1994C10.1688 18.3691 9.93769 18.4644 9.69665 18.4644C9.45562 18.4644 9.22446 18.3691 9.05403 18.1994L0.883763 10.0681C0.799261 9.98415 0.73222 9.88446 0.686478 9.77471C0.640737 9.66497 0.617188 9.54733 0.617188 9.42852C0.617188 9.3097 0.640737 9.19205 0.686478 9.08231C0.73222 8.97256 0.799261 8.87286 0.883763 8.78894L9.05323 0.659942C9.22367 0.490317 9.45482 0.39502 9.69586 0.39502C9.93689 0.39502 10.1681 0.490317 10.3385 0.659942C10.5089 0.829566 10.6047 1.05962 10.6047 1.29951C10.6047 1.5394 10.5089 1.76945 10.3385 1.93908L2.81007 9.42852Z" fill="#ED145A"/>
<path d="M9.6958 7.74717e-06C9.95372 -0.000168576 10.2059 0.0758126 10.4204 0.21834C10.6349 0.360868 10.8021 0.563528 10.9008 0.800672C10.9996 1.03782 11.0254 1.29879 10.975 1.55054C10.9247 1.80229 10.8004 2.03351 10.6179 2.21494L3.36817 9.42858L10.6179 16.6422C10.7389 16.7627 10.835 16.9057 10.9005 17.0631C10.966 17.2205 10.9997 17.3892 10.9997 17.5595C10.9997 17.7299 10.966 17.8986 10.9005 18.056C10.835 18.2134 10.739 18.3564 10.6179 18.4769C10.4969 18.5973 10.3532 18.6929 10.195 18.7581C10.0369 18.8233 9.86737 18.8568 9.69619 18.8568C9.52502 18.8568 9.35552 18.8233 9.19738 18.7581C9.03923 18.6929 8.89553 18.5973 8.77449 18.4769L0.604226 10.3455C0.482963 10.2251 0.386752 10.082 0.321111 9.92457C0.255469 9.76709 0.22168 9.59828 0.22168 9.42779C0.22168 9.2573 0.255469 9.08848 0.321111 8.93101C0.386752 8.77353 0.482963 8.6305 0.604226 8.51007L8.77369 0.379497C8.89453 0.258682 9.03826 0.162933 9.19655 0.0977904C9.35483 0.0326477 9.52452 -0.000583277 9.6958 7.74717e-06ZM9.6958 18.0714C9.7976 18.0716 9.89719 18.0418 9.9819 17.9856C10.0666 17.9294 10.1326 17.8494 10.1716 17.7558C10.2106 17.6622 10.2208 17.5592 10.2009 17.4599C10.181 17.3605 10.1318 17.2693 10.0598 17.1977L2.25107 9.42858L10.0598 1.65944C10.1562 1.56347 10.2103 1.43332 10.2103 1.29761C10.2103 1.1619 10.1562 1.03175 10.0598 0.935789C9.96334 0.839828 9.83255 0.785914 9.69619 0.785914C9.55984 0.785914 9.42907 0.839828 9.33265 0.935789L1.16238 9.06715C1.11437 9.11455 1.07631 9.171 1.05042 9.23318C1.02454 9.29537 1.01133 9.36205 1.01159 9.42936C1.01198 9.56491 1.06619 9.69483 1.16238 9.79079L9.33265 17.9221C9.38028 17.9697 9.43689 18.0073 9.49922 18.0329C9.56155 18.0585 9.62836 18.0716 9.6958 18.0714Z" fill="#ED145A"/>
<path d="M9.6958 7.74717e-06C9.95372 -0.000168576 10.2059 0.0758126 10.4204 0.21834C10.6349 0.360868 10.8021 0.563528 10.9008 0.800672C10.9996 1.03782 11.0254 1.29879 10.975 1.55054C10.9247 1.80229 10.8004 2.03351 10.6179 2.21494L3.36817 9.42858L10.6179 16.6422C10.7389 16.7627 10.835 16.9057 10.9005 17.0631C10.966 17.2205 10.9997 17.3892 10.9997 17.5595C10.9997 17.7299 10.966 17.8986 10.9005 18.056C10.835 18.2134 10.739 18.3564 10.6179 18.4769C10.4969 18.5973 10.3532 18.6929 10.195 18.7581C10.0369 18.8233 9.86737 18.8568 9.69619 18.8568C9.52502 18.8568 9.35552 18.8233 9.19738 18.7581C9.03923 18.6929 8.89553 18.5973 8.77449 18.4769L0.604226 10.3455C0.482963 10.2251 0.386752 10.082 0.321111 9.92457C0.255469 9.76709 0.22168 9.59828 0.22168 9.42779C0.22168 9.2573 0.255469 9.08848 0.321111 8.93101C0.386752 8.77353 0.482963 8.6305 0.604226 8.51007L8.77369 0.379497C8.89453 0.258682 9.03826 0.162933 9.19655 0.0977904C9.35483 0.0326477 9.52452 -0.000583277 9.6958 7.74717e-06ZM9.6958 18.0714C9.7976 18.0716 9.89719 18.0418 9.9819 17.9856C10.0666 17.9294 10.1326 17.8494 10.1716 17.7558C10.2106 17.6622 10.2208 17.5592 10.2009 17.4599C10.181 17.3605 10.1318 17.2693 10.0598 17.1977L2.25107 9.42858L10.0598 1.65944C10.1562 1.56347 10.2103 1.43332 10.2103 1.29761C10.2103 1.1619 10.1562 1.03175 10.0598 0.935789C9.96334 0.839828 9.83255 0.785914 9.69619 0.785914C9.55984 0.785914 9.42907 0.839828 9.33265 0.935789L1.16238 9.06715C1.11437 9.11455 1.07631 9.171 1.05042 9.23318C1.02454 9.29537 1.01133 9.36205 1.01159 9.42936C1.01198 9.56491 1.06619 9.69483 1.16238 9.79079L9.33265 17.9221C9.38028 17.9697 9.43689 18.0073 9.49922 18.0329C9.56155 18.0585 9.62836 18.0716 9.6958 18.0714Z" fill="#ED145A"/>
</svg>
