<svg width="11" height="19" viewBox="0 0 11 19" fill="none" xmlns="http://www.w3.org/2000/svg">
<path d="M8.18993 9.42852L0.660719 16.9203C0.490282 17.0899 0.394529 17.32 0.394529 17.5599C0.394529 17.7998 0.490282 18.0298 0.660719 18.1994C0.831156 18.3691 1.06231 18.4644 1.30335 18.4644C1.54438 18.4644 1.77554 18.3691 1.94597 18.1994L10.1162 10.0681C10.2007 9.98415 10.2678 9.88446 10.3135 9.77471C10.3593 9.66497 10.3828 9.54733 10.3828 9.42852C10.3828 9.3097 10.3593 9.19205 10.3135 9.08231C10.2678 8.97256 10.2007 8.87286 10.1162 8.78894L1.94677 0.659942C1.77633 0.490317 1.54518 0.39502 1.30414 0.39502C1.06311 0.39502 0.831939 0.490317 0.661502 0.659942C0.491065 0.829566 0.395312 1.05962 0.395312 1.29951C0.395312 1.5394 0.491065 1.76945 0.661502 1.93908L8.18993 9.42852Z" fill="#ED145A"/>
<path d="M1.3042 7.74717e-06C1.04628 -0.000168576 0.794098 0.0758126 0.579587 0.21834C0.365076 0.360868 0.197879 0.563528 0.0991516 0.800672C0.000425339 1.03782 -0.0253963 1.29879 0.0249701 1.55054C0.0753374 1.80229 0.199631 2.03351 0.382098 2.21494L7.63183 9.42858L0.382098 16.6422C0.261058 16.7627 0.165032 16.9057 0.0995255 17.0631C0.0340185 17.2205 0.000310898 17.3892 0.000310898 17.5595C0.000310898 17.7299 0.0340185 17.8986 0.0995255 18.056C0.165032 18.2134 0.261045 18.3564 0.382086 18.4769C0.503127 18.5973 0.646828 18.6929 0.804976 18.7581C0.963122 18.8233 1.13263 18.8568 1.30381 18.8568C1.47498 18.8568 1.64448 18.8233 1.80262 18.7581C1.96077 18.6929 2.10447 18.5973 2.22551 18.4769L10.3958 10.3455C10.517 10.2251 10.6132 10.082 10.6789 9.92457C10.7445 9.76709 10.7783 9.59828 10.7783 9.42779C10.7783 9.2573 10.7445 9.08848 10.6789 8.93101C10.6132 8.77353 10.517 8.6305 10.3958 8.51007L2.22631 0.379497C2.10547 0.258682 1.96174 0.162933 1.80345 0.0977904C1.64517 0.0326477 1.47548 -0.000583277 1.3042 7.74717e-06ZM1.3042 18.0714C1.2024 18.0716 1.10281 18.0418 1.0181 17.9856C0.933387 17.9294 0.867356 17.8494 0.828369 17.7558C0.789382 17.6622 0.779202 17.5592 0.799121 17.4599C0.81904 17.3605 0.868153 17.2693 0.940245 17.1977L8.74893 9.42858L0.940245 1.65944C0.843824 1.56347 0.789664 1.43332 0.789664 1.29761C0.789664 1.1619 0.843824 1.03175 0.940245 0.935789C1.03666 0.839828 1.16745 0.785914 1.30381 0.785914C1.44016 0.785914 1.57093 0.839828 1.66735 0.935789L9.83762 9.06715C9.88563 9.11455 9.92369 9.171 9.94958 9.23318C9.97546 9.29537 9.98867 9.36205 9.98841 9.42936C9.98802 9.56491 9.93381 9.69483 9.83762 9.79079L1.66735 17.9221C1.61972 17.9697 1.56311 18.0073 1.50078 18.0329C1.43845 18.0585 1.37164 18.0716 1.3042 18.0714Z" fill="#ED145A"/>
<path d="M1.3042 7.74717e-06C1.04628 -0.000168576 0.794098 0.0758126 0.579587 0.21834C0.365076 0.360868 0.197879 0.563528 0.0991516 0.800672C0.000425339 1.03782 -0.0253963 1.29879 0.0249701 1.55054C0.0753374 1.80229 0.199631 2.03351 0.382098 2.21494L7.63183 9.42858L0.382098 16.6422C0.261058 16.7627 0.165032 16.9057 0.0995255 17.0631C0.0340185 17.2205 0.000310898 17.3892 0.000310898 17.5595C0.000310898 17.7299 0.0340185 17.8986 0.0995255 18.056C0.165032 18.2134 0.261045 18.3564 0.382086 18.4769C0.503127 18.5973 0.646828 18.6929 0.804976 18.7581C0.963122 18.8233 1.13263 18.8568 1.30381 18.8568C1.47498 18.8568 1.64448 18.8233 1.80262 18.7581C1.96077 18.6929 2.10447 18.5973 2.22551 18.4769L10.3958 10.3455C10.517 10.2251 10.6132 10.082 10.6789 9.92457C10.7445 9.76709 10.7783 9.59828 10.7783 9.42779C10.7783 9.2573 10.7445 9.08848 10.6789 8.93101C10.6132 8.77353 10.517 8.6305 10.3958 8.51007L2.22631 0.379497C2.10547 0.258682 1.96174 0.162933 1.80345 0.0977904C1.64517 0.0326477 1.47548 -0.000583277 1.3042 7.74717e-06ZM1.3042 18.0714C1.2024 18.0716 1.10281 18.0418 1.0181 17.9856C0.933387 17.9294 0.867356 17.8494 0.828369 17.7558C0.789382 17.6622 0.779202 17.5592 0.799121 17.4599C0.81904 17.3605 0.868153 17.2693 0.940245 17.1977L8.74893 9.42858L0.940245 1.65944C0.843824 1.56347 0.789664 1.43332 0.789664 1.29761C0.789664 1.1619 0.843824 1.03175 0.940245 0.935789C1.03666 0.839828 1.16745 0.785914 1.30381 0.785914C1.44016 0.785914 1.57093 0.839828 1.66735 0.935789L9.83762 9.06715C9.88563 9.11455 9.92369 9.171 9.94958 9.23318C9.97546 9.29537 9.98867 9.36205 9.98841 9.42936C9.98802 9.56491 9.93381 9.69483 9.83762 9.79079L1.66735 17.9221C1.61972 17.9697 1.56311 18.0073 1.50078 18.0329C1.43845 18.0585 1.37164 18.0716 1.3042 18.0714Z" fill="#ED145A"/>
</svg>
