<svg width="20" height="19" viewBox="0 0 20 19" fill="none" xmlns="http://www.w3.org/2000/svg">
<path d="M9.76705 18.6958L9.52553 18.5497C7.38774 17.2325 5.40097 15.6847 3.60091 13.934C2.27282 12.6164 1.26586 11.0107 0.658024 9.24141C0.0578758 7.46732 0.128168 5.53488 0.855624 3.8091C1.20787 2.9898 1.73212 2.2558 2.39285 1.65685C3.05358 1.05789 3.83535 0.607972 4.68518 0.337584C5.53914 0.0627774 6.44086 -0.0316837 7.33323 0.0601843C8.2256 0.152052 9.08916 0.428247 9.86922 0.871273L10.1327 1.0275L10.397 0.871273C11.8902 0.0253981 13.6576 -0.194435 15.3125 0.259895L15.5751 0.337584C16.4257 0.608609 17.2081 1.05931 17.8693 1.65913C18.5304 2.25896 19.0549 2.99391 19.4072 3.81416C20.1355 5.5436 20.2058 7.47976 19.6048 9.25745C18.9915 11.0192 17.9868 12.619 16.6662 13.9365C14.8656 15.6844 12.8789 17.2297 10.7415 18.5447L10.5152 18.6857C10.4023 18.7554 10.2725 18.7928 10.1398 18.7938C10.0072 18.7949 9.87679 18.7595 9.76282 18.6916L9.76705 18.6958ZM5.12598 1.71572C4.46294 1.92813 3.85396 2.28205 3.34117 2.753C2.82838 3.22394 2.42402 3.80067 2.15607 4.44327C1.59139 5.82953 1.547 7.37321 2.03109 8.78963C2.57023 10.3389 3.45272 11.7462 4.61256 12.9063C6.33436 14.5776 8.23416 16.0552 10.2779 17.3126L10.1361 17.2239L10.5971 16.9334C12.2096 15.8921 13.7275 14.7112 15.1335 13.4045L15.6545 12.9105C16.8132 11.7538 17.6947 10.3495 18.2326 8.80314C18.7167 7.38418 18.6711 5.838 18.1042 4.45003C17.8363 3.80606 17.4317 3.228 16.9183 2.75588C16.4049 2.28376 15.7951 1.92885 15.131 1.71572C14.3631 1.46927 13.5474 1.41059 12.7522 1.54459C11.957 1.67859 11.2055 2.00138 10.5608 2.48585C10.4379 2.57772 10.2889 2.62814 10.1355 2.62981C9.98201 2.63147 9.83199 2.58432 9.70709 2.49514L9.50949 2.35581C8.87561 1.92139 8.1507 1.63785 7.39029 1.5269C6.62989 1.41595 5.85418 1.48054 5.1226 1.71572H5.12598Z" fill="#9A9A9A"/>
</svg>
