<svg width="22" height="22" viewBox="0 0 22 22" fill="none" xmlns="http://www.w3.org/2000/svg">
<path fill-rule="evenodd" clip-rule="evenodd" d="M10.4545 21.7647L10.4535 21.766L10.1897 21.6064C7.85402 20.1673 5.68337 18.4762 3.71672 16.5634L3.71465 16.5614C2.24312 15.1015 1.12741 13.3224 0.453924 11.362L0.453477 11.3607C-0.219975 9.36993 -0.141096 7.20144 0.675217 5.26485L0.676025 5.26293C1.0744 4.33633 1.66733 3.5062 2.4146 2.82879C3.16175 2.15149 4.04576 1.6427 5.00672 1.33688C5.9708 1.0267 6.98879 0.920097 7.99622 1.02381C9.00381 1.12754 9.97888 1.4394 10.8597 1.93963L10.8644 1.94232L11.0013 2.02354L11.1436 1.93943C12.8295 0.984388 14.8251 0.736227 16.6935 1.24919L16.699 1.25071L16.9896 1.33671C17.9515 1.64322 18.8363 2.15299 19.584 2.83135C20.3318 3.50971 20.9249 4.34088 21.3234 5.26853L21.3242 5.27044C22.1413 7.21095 22.2202 9.3834 21.5459 11.3781L21.545 11.3805C20.8657 13.332 19.7527 15.1041 18.2899 16.5636L18.287 16.5664C16.32 18.4759 14.1497 20.164 11.8148 21.6005C11.8146 21.6007 11.815 21.6004 11.8148 21.6005L11.5691 21.7536C11.4013 21.8572 11.2083 21.9128 11.0111 21.9144C10.8154 21.9159 10.623 21.8642 10.4545 21.7647ZM10.6058 21.5149C10.6057 21.5148 10.606 21.515 10.6058 21.5149C10.616 21.5209 10.6264 21.5266 10.6368 21.5321C10.7513 21.5922 10.879 21.6234 11.0088 21.6223C11.1526 21.6212 11.2934 21.5807 11.4157 21.5051L11.6611 21.3522C13.978 19.9268 16.1317 18.2516 18.0836 16.3568C19.5152 14.9286 20.6044 13.1943 21.2692 11.2845C21.9207 9.35743 21.8445 7.25856 21.055 5.38378C20.6731 4.49459 20.1045 3.69788 19.3878 3.04764C18.6711 2.3974 17.8229 1.90883 16.9009 1.61502L16.6162 1.53081C14.8222 1.03829 12.9062 1.2766 11.2876 2.19356L11.001 2.36292L10.7154 2.19356C9.86982 1.71331 8.93368 1.4139 7.96631 1.31431C6.99895 1.21472 6.02144 1.31712 5.09572 1.61502C4.17447 1.90814 3.327 2.39587 2.61074 3.04516C1.89448 3.69445 1.32617 4.49014 0.944322 5.37828C0.155731 7.24911 0.0795309 9.34396 0.730116 11.2671C1.38904 13.1851 2.48063 14.9257 3.92033 16.3541C5.87166 18.2519 8.0254 19.9298 10.3429 21.3577L10.6047 21.5161L10.6001 21.5115C10.6019 21.5126 10.604 21.5139 10.6058 21.5149ZM5.66249 3.38597L5.66266 3.38709C4.98418 3.60445 4.36102 3.96661 3.83629 4.44852C3.31186 4.93016 2.89826 5.51991 2.62407 6.17703C2.03904 7.614 1.99308 9.21399 2.49466 10.6822C3.06442 12.3191 3.99674 13.8061 5.22195 15.032C6.98592 16.7441 8.92362 18.267 11.0034 19.5762L11.3461 19.3603C11.3465 19.36 11.347 19.3597 11.3474 19.3595C13.0801 18.2403 14.7113 16.9713 16.2223 15.5671C16.2226 15.5668 16.223 15.5665 16.2233 15.5662L16.7833 15.0353C18.0066 13.8133 18.9373 12.3301 19.5056 10.697C20.0072 9.22596 19.9599 7.62317 19.3725 6.18427C19.0983 5.52565 18.6844 4.93443 18.1593 4.45151C17.6339 3.96836 17.0098 3.60515 16.3301 3.38704C15.5422 3.13416 14.7052 3.07394 13.8892 3.21144C13.0732 3.34895 12.3021 3.68016 11.6406 4.17729C11.4577 4.31396 11.2355 4.38942 11.0072 4.3919C10.7792 4.39438 10.5564 4.32441 10.3707 4.19209C10.3705 4.19192 10.3709 4.19226 10.3707 4.19209L10.1588 4.04267C9.50879 3.59756 8.76558 3.30701 7.98601 3.19326C7.20692 3.07959 6.41217 3.14551 5.66249 3.38597ZM5.61688 3.09411C6.39613 2.85134 7.22012 2.78639 8.02817 2.90429C8.85248 3.02456 9.63832 3.33194 10.3255 3.80286L10.5397 3.9539C10.6751 4.05057 10.8377 4.1017 11.0041 4.09989C11.1704 4.09808 11.3319 4.04343 11.4652 3.94383C12.164 3.41864 12.9786 3.06873 13.8407 2.92347C14.7027 2.7782 15.587 2.84182 16.4194 3.10898C17.1393 3.34002 17.8004 3.72475 18.3569 4.23656C18.9135 4.74836 19.3521 5.37499 19.6425 6.07308C20.257 7.5777 20.3065 9.25383 19.7817 10.792C19.1986 12.4684 18.243 13.9907 16.9869 15.2446L16.4221 15.7801C14.898 17.1967 13.2525 18.4767 11.5045 19.6056L11.2791 19.7476L11.0047 19.9205L11.1585 20.0166C11.1075 19.9853 11.0566 19.9537 11.0057 19.9221C11.0052 19.9218 11.0052 19.9208 11.0047 19.9205C10.9129 19.8634 10.821 19.8066 10.7297 19.7486C8.67682 18.4451 6.76252 16.9344 5.01699 15.24C3.75969 13.9825 2.80302 12.4569 2.21858 10.7774C1.6938 9.24194 1.74192 7.56852 2.35406 6.06576C2.64453 5.36915 3.08287 4.74395 3.63876 4.23343C4.18249 3.73407 4.82599 3.35607 5.52652 3.12429C5.54096 3.11952 5.55542 3.1148 5.5699 3.11015C5.56979 3.11019 5.57002 3.11011 5.5699 3.11015C5.57101 3.1098 5.57246 3.10933 5.57356 3.10898H5.5699C5.57101 3.10862 5.57211 3.10827 5.57322 3.10791C5.57311 3.10795 5.57334 3.10787 5.57322 3.10791C5.58764 3.10329 5.60242 3.09861 5.61688 3.09411Z" fill="white"/>
</svg>
