<svg width="323" height="84" viewBox="0 0 323 84" fill="none" xmlns="http://www.w3.org/2000/svg">
<rect width="323" height="84" fill="#ED145A"/>
<g clip-path="url(#clip0_10_79)">
<path d="M142.086 50.8573C142.109 52.0622 141.859 53.2566 141.355 54.3512C140.851 55.4458 140.106 56.4123 139.176 57.1783C137.792 58.2695 136.081 58.8634 134.319 58.8644C132.068 58.7907 129.937 57.8282 128.394 56.1876C126.851 54.547 126.02 52.3619 126.084 50.1104V26.5273H109.506V49.7683C109.506 50.4523 109.527 51.0343 109.572 51.5863C109.325 53.7152 108.256 55.6634 106.593 57.0153C104.93 58.3672 102.804 59.0158 100.67 58.8228C98.5354 58.6299 96.5607 57.6106 95.1671 55.9825C93.7734 54.3543 93.0711 52.246 93.2098 50.1073V26.5273H76.6289V49.7683C76.6289 62.5813 86.1089 73.0094 97.7639 73.0094C100.99 72.9734 104.162 72.1725 107.019 70.6727C109.876 69.1728 112.336 67.0167 114.198 64.3813C116.059 67.0158 118.518 69.1715 121.374 70.6713C124.23 72.1712 127.4 72.9724 130.626 73.0094C134.737 72.9937 138.741 71.6988 142.083 69.3044V73.0094H158.538V26.5273H142.083L142.086 50.8573Z" fill="white"/>
<path d="M245.563 26.5273C242.878 26.5555 240.225 27.118 237.76 28.1822C235.294 29.2463 233.065 30.7907 231.202 32.7253V26.5273H214.735V73.0123H231.202V44.3533H248.683V26.7583L247.387 26.6204C246.782 26.5583 246.175 26.5273 245.566 26.5273" fill="white"/>
<path d="M307.018 26.53C306.212 26.5146 305.419 26.7394 304.742 27.1759C304.064 27.6123 303.532 28.2407 303.213 28.9809C302.893 29.7211 302.802 30.5395 302.95 31.332C303.097 32.1244 303.478 32.855 304.042 33.4305C304.606 34.006 305.329 34.4003 306.119 34.5634C306.908 34.7264 307.728 34.6507 308.475 34.3459C309.221 34.0412 309.859 33.5211 310.309 32.852C310.759 32.1829 310.999 31.3951 310.999 30.589C310.999 29.5259 310.582 28.5051 309.838 27.7461C309.093 26.9871 308.081 26.5505 307.018 26.53ZM307.018 34.183C306.303 34.1973 305.6 33.9984 304.999 33.6116C304.397 33.2249 303.925 32.6677 303.641 32.0113C303.357 31.3549 303.276 30.6289 303.406 29.9259C303.537 29.2229 303.874 28.5747 304.375 28.064C304.875 27.5533 305.516 27.2032 306.217 27.0584C306.917 26.9136 307.644 26.9805 308.306 27.2507C308.968 27.521 309.535 27.9822 309.934 28.5757C310.333 29.1692 310.546 29.868 310.546 30.583C310.546 31.5255 310.177 32.4304 309.517 33.1035C308.857 33.7766 307.96 34.1642 307.018 34.183Z" fill="white"/>
<path d="M307.853 31.0153C307.76 31.0006 307.673 30.9611 307.602 30.9009C307.53 30.8408 307.475 30.7623 307.444 30.6738C307.414 30.5853 307.407 30.4901 307.426 30.3982C307.445 30.3064 307.488 30.2215 307.552 30.1523C307.615 30.0832 307.696 30.0325 307.786 30.0056C307.875 29.9787 307.971 29.9766 308.062 29.9996C308.153 30.0226 308.235 30.0697 308.302 30.136C308.368 30.2024 308.415 30.2854 308.438 30.3763C308.638 30.1585 308.746 29.8712 308.738 29.5753C308.74 29.3378 308.676 29.1043 308.555 28.9003C308.445 28.7065 308.273 28.5561 308.066 28.4743C307.775 28.3807 307.47 28.3401 307.166 28.3543H305.222V32.8243H305.801V30.8413H306.476C306.583 30.8381 306.691 30.8452 306.797 30.8623C306.892 30.888 306.982 30.9285 307.064 30.9823C307.179 31.0659 307.28 31.1672 307.364 31.2823C307.475 31.4263 307.613 31.6303 307.784 31.9003L308.363 32.8273H309.095L308.33 31.6123C308.196 31.3926 308.035 31.1909 307.85 31.0123M307.058 30.3253H305.81V28.8463H307.199C307.454 28.8253 307.707 28.8979 307.913 29.0503C307.986 29.1161 308.045 29.1971 308.083 29.2879C308.122 29.3786 308.141 29.4767 308.138 29.5753C308.138 29.7168 308.097 29.8553 308.021 29.9743C307.94 30.0993 307.82 30.1934 307.679 30.2413C307.477 30.3045 307.269 30.3329 307.058 30.3253Z" fill="white"/>
<path d="M194.941 30.5803C191.512 27.9648 187.322 26.5425 183.01 26.5303C171.361 26.5303 161.884 36.9553 161.884 49.7713C161.884 62.5873 171.361 73.0123 183.01 73.0123C187.322 72.9998 191.512 71.5775 194.941 68.9623V73.0123H211.396V26.5333H194.941V30.5803ZM186.697 58.7083C184.655 58.8145 182.628 58.306 180.879 57.2484C179.129 56.1909 177.737 54.6329 176.882 52.7759C176.027 50.9188 175.748 48.848 176.082 46.831C176.416 44.8141 177.347 42.9436 178.755 41.4614C180.164 39.9791 181.984 38.9532 183.981 38.5163C185.978 38.0793 188.061 38.2513 189.959 39.0101C191.858 39.7689 193.485 41.0795 194.631 42.7727C195.776 44.4659 196.388 46.4638 196.387 48.5083C196.45 51.1448 195.466 53.6989 193.65 55.6109C191.833 57.523 189.333 58.6368 186.697 58.7083Z" fill="white"/>
<path d="M65.9016 12.1902H61.9445H59.3856L47.6855 23.8902L46.7104 24.8442L33.6426 12.2082H14.9645V26.3082H35.7485H45.2916L40.6564 30.9402L29.7335 41.8602L22.8696 48.7332L22.4224 49.1532L13.2996 58.2732C11.8855 59.6428 11.0666 61.5133 11.0195 63.4812V72.9732H18.3575C18.5735 72.9932 18.7915 73.0032 19.0115 73.0032H71.9105V58.6932H37.6475L37.7015 58.6422H37.6654L53.1065 43.2012L60.0876 36.2232L60.5345 35.8032L70.9025 25.4382C72.3149 24.0676 73.1336 22.1978 73.1826 20.2302V12.1782H65.8955L65.9016 12.1902Z" fill="white"/>
<path d="M283.435 30.5803C280.007 27.9646 275.816 26.5423 271.504 26.5303C259.855 26.5303 250.378 36.9553 250.378 49.7713C250.378 62.5873 259.855 73.0123 271.504 73.0123C275.816 73.0001 280.006 71.5777 283.435 68.9623V73.0123H299.89V26.5333H283.435V30.5803ZM275.191 58.7083C273.149 58.8145 271.123 58.306 269.373 57.2484C267.623 56.1909 266.231 54.6329 265.376 52.7759C264.521 50.9188 264.242 48.848 264.576 46.831C264.91 44.8141 265.842 42.9436 267.25 41.4614C268.658 39.9791 270.478 38.9532 272.475 38.5163C274.473 38.0793 276.555 38.2513 278.453 39.0101C280.352 39.7689 281.979 41.0795 283.125 42.7727C284.271 44.4659 284.882 46.4638 284.881 48.5083C284.946 51.145 283.961 53.6996 282.145 55.6118C280.328 57.524 277.827 58.6376 275.191 58.7083Z" fill="white"/>
<path d="M46.8149 21.307L58.1129 10H35.1328L46.4308 21.307L46.5088 21.382L46.6168 21.49L46.7219 21.382L46.8029 21.307H46.8149Z" fill="#BC264A"/>
</g>
<defs>
<clipPath id="clip0_10_79">
<rect width="300" height="63.03" fill="white" transform="translate(11 10)"/>
</clipPath>
</defs>
</svg>
